<?xml version="1.0" ?><svg id="Capa_1" style="enable-background:new 0 0 383.8 442;" version="1.1" viewBox="0 0 383.8 442" xml:space="preserve" xmlns="http://www.w3.org/2000/svg" xmlns:xlink="http://www.w3.org/1999/xlink"><g><path d="M340.6,0H44.1C20.6,0,1.2,19.1,0.9,42.6L0,115.4c0,21.1,17.2,38.3,38.3,38.3h7.6c21.1,0,38.3-17.2,38.3-38.3v-24   c0-4,3.3-7.3,7.3-7.3h52.4c4,0,7.3,3.3,7.3,7.3v259.3c0,4-3.3,7.3-7.3,7.3c-21.1,0-38.3,17.2-38.3,38.3v7.6   c0,21.1,17.2,38.3,38.3,38.3h98.6c21.1,0,38.3-17.2,38.3-38.3v-7.6c0-21.1-17.2-38.3-38.3-38.3c-4,0-7.3-3.3-7.3-7.3V91.4   c0-4,3.3-7.3,7.3-7.3h49.9c4,0,7.3,3.3,7.3,7.3v24c0,21.1,17.2,38.3,38.3,38.3h7.6c21.1,0,38.3-17.2,38.3-38.3V43.2   C383.8,19.4,364.4,0,340.6,0z M330.7,115.4v-24c0-21.1-17.2-38.3-38.3-38.3h-49.9c-21.1,0-38.3,17.2-38.3,38.3v259.3   c0,21.1,17.2,38.3,38.3,38.3c4,0,7.3,3.3,7.3,7.3v7.6c0,4-3.3,7.3-7.3,7.3h-98.6c-4,0-7.3-3.3-7.3-7.3v-7.6c0-4,3.3-7.3,7.3-7.3   c21.1,0,38.3-17.2,38.3-38.3V91.4c0-21.1-17.2-38.3-38.3-38.3H91.4c-21.1,0-38.3,17.2-38.3,38.3v24c0,4-3.3,7.3-7.3,7.3h-7.6   c-4,0-7.3-3.3-7.3-7.1L31.9,43c0.1-6.6,5.5-12,12.1-12h296.5c6.7,0,12.1,5.4,12.1,12.2v72.2c0,4-3.3,7.3-7.3,7.3h-7.6   C333.9,122.7,330.7,119.4,330.7,115.4z"/></g></svg>